<svg width="500" height="500" viewBox="0 0 500 500" fill="none" xmlns="http://www.w3.org/2000/svg">
<g clip-path="url(#clip0_291_132)">
<path fill-rule="evenodd" clip-rule="evenodd" d="M-0.5 -0.5C166.167 -0.5 332.833 -0.5 499.5 -0.5C499.5 166.167 499.5 332.833 499.5 499.5C332.833 499.5 166.167 499.5 -0.5 499.5C-0.5 332.833 -0.5 166.167 -0.5 -0.5Z" fill="#FEFEFE"/>
<path fill-rule="evenodd" clip-rule="evenodd" d="M231.5 99.4998C296.007 95.5018 345.507 120.502 380 174.5C405.963 224.462 405.963 274.462 380 324.5C345.541 378.647 296.041 403.48 231.5 399C171.722 389.377 130.555 356.543 108 300.5C88.2522 236.756 102.419 181.923 150.5 136C174.105 116.195 201.105 104.029 231.5 99.4998Z" fill="#08629F"/>
<path fill-rule="evenodd" clip-rule="evenodd" d="M234.5 111.5C237.5 111.5 240.5 111.5 243.5 111.5C243.5 112.5 243.5 113.5 243.5 114.5C241.5 114.5 239.5 114.5 237.5 114.5C238.354 120.812 239.021 127.145 239.5 133.5C237.833 133.5 236.167 133.5 234.5 133.5C234.553 127.804 234.22 122.138 233.5 116.5C231.167 116.5 228.833 116.5 226.5 116.5C226.5 115.167 226.5 113.833 226.5 112.5C229.385 112.806 232.052 112.473 234.5 111.5Z" fill="#EBF2F7"/>
<path fill-rule="evenodd" clip-rule="evenodd" d="M248.5 111.5C253.5 111.5 258.5 111.5 263.5 111.5C263.5 112.833 263.5 114.167 263.5 115.5C259.833 115.5 256.167 115.5 252.5 115.5C252.5 116.833 252.5 118.167 252.5 119.5C255.833 119.5 259.167 119.5 262.5 119.5C262.5 120.833 262.5 122.167 262.5 123.5C259.167 123.5 255.833 123.5 252.5 123.5C252.5 125.167 252.5 126.833 252.5 128.5C256.167 128.5 259.833 128.5 263.5 128.5C263.5 129.833 263.5 131.167 263.5 132.5C258.167 132.5 252.833 132.5 247.5 132.5C247.502 125.48 247.835 118.48 248.5 111.5Z" fill="#E8F0F6"/>
<path fill-rule="evenodd" clip-rule="evenodd" d="M268.5 112.5C269.833 112.5 271.167 112.5 272.5 112.5C272.334 117.844 272.501 123.177 273 128.5C274.726 124.047 276.726 119.714 279 115.5C280.299 115.034 281.799 115.034 283.5 115.5C283.334 120.511 283.501 125.511 284 130.5C285.559 126.381 287.393 122.381 289.5 118.5C291.167 117.167 292.833 117.167 294.5 118.5C291.167 124.5 287.833 130.5 284.5 136.5C283.349 137.731 282.183 137.731 281 136.5C280.667 131.167 280.333 125.833 280 120.5C277.726 124.714 275.726 129.047 274 133.5C272.644 134.38 271.144 134.714 269.5 134.5C269.277 127.16 268.944 119.827 268.5 112.5Z" fill="#F2F6F9"/>
<path fill-rule="evenodd" clip-rule="evenodd" d="M212.5 115.5C216.257 115.071 219.757 115.737 223 117.5C223.483 118.448 223.649 119.448 223.5 120.5C220.91 120.604 218.577 119.937 216.5 118.5C214.337 118.745 212.67 119.745 211.5 121.5C211.709 122.086 212.043 122.586 212.5 123C216.167 123.333 219.833 123.667 223.5 124C227.032 127.39 227.366 131.057 224.5 135C221.068 137.072 217.402 137.738 213.5 137C211.393 135.736 210.393 133.903 210.5 131.5C213.23 131.473 215.73 132.14 218 133.5C221.869 133.25 223.036 131.417 221.5 128C217.833 127.667 214.167 127.333 210.5 127C206.196 122.352 206.862 118.518 212.5 115.5Z" fill="#ECF3F7"/>
<path fill-rule="evenodd" clip-rule="evenodd" d="M297.5 120.5C299.635 120.147 300.968 120.98 301.5 123C299.667 127.833 297.833 132.667 296 137.5C294.83 140.67 292.997 141.17 290.5 139C293.13 132.943 295.463 126.776 297.5 120.5Z" fill="#F0F5F9"/>
<path fill-rule="evenodd" clip-rule="evenodd" d="M193.5 122.5C194.552 122.351 195.552 122.517 196.5 123C201.167 128 205.833 133 210.5 138C207.928 139.908 205.428 139.741 203 137.5C200.953 138.609 198.787 139.276 196.5 139.5C197.029 142.604 196.029 144.937 193.5 146.5C192.621 140.357 191.954 134.19 191.5 128C191.698 125.879 192.364 124.046 193.5 122.5Z" fill="#F1F6F9"/>
<path fill-rule="evenodd" clip-rule="evenodd" d="M306.5 125.5C312.925 124.949 317.258 127.616 319.5 133.5C319.547 135 318.881 136 317.5 136.5C315.239 134.821 313.572 132.654 312.5 130C310.888 129.28 309.388 129.446 308 130.5C309.407 133.945 311.741 136.945 315 139.5C315.5 145.667 312.667 148.5 306.5 148C301.169 146.36 298.669 142.86 299 137.5C300.299 137.034 301.799 137.034 303.5 137.5C302.483 141.789 304.15 144.122 308.5 144.5C310.266 144.566 311.266 143.732 311.5 142C309.12 139.06 306.62 136.227 304 133.5C303.018 130.225 303.851 127.559 306.5 125.5Z" fill="#EAF1F7"/>
<path fill-rule="evenodd" clip-rule="evenodd" d="M178.5 129.5C179.675 129.281 180.675 129.614 181.5 130.5C183.936 136.645 186.27 142.811 188.5 149C187.421 149.956 186.255 150.789 185 151.5C181.333 148.167 177.667 144.833 174 141.5C175.364 145.754 176.864 150.088 178.5 154.5C178.566 156.266 177.732 157.266 176 157.5C170.221 153.392 164.721 148.892 159.5 144C160.354 142.978 161.354 142.145 162.5 141.5C165.833 144.5 169.167 147.5 172.5 150.5C172.833 150.167 173.167 149.833 173.5 149.5C166.482 133.251 169.315 131.585 182 144.5C181.129 140.228 179.629 136.061 177.5 132C177.743 131.098 178.077 130.265 178.5 129.5Z" fill="#EEF4F8"/>
<path fill-rule="evenodd" clip-rule="evenodd" d="M195.5 128.5C198.535 129.956 199.869 132.123 199.5 135C198.207 135.49 196.873 135.657 195.5 135.5C195.5 133.167 195.5 130.833 195.5 128.5Z" fill="#3073AA"/>
<path fill-rule="evenodd" clip-rule="evenodd" d="M325.5 134.5C330.073 137.059 334.406 140.059 338.5 143.5C338.081 144.672 337.415 145.672 336.5 146.5C334.116 144.115 331.45 142.115 328.5 140.5C327.167 141.167 326.167 142.167 325.5 143.5C327.46 145.156 329.46 146.823 331.5 148.5C332.949 151.016 332.282 152.183 329.5 152C327.241 150.285 325.074 148.452 323 146.5C321.954 148.09 320.787 149.59 319.5 151C322.5 153.333 325.5 155.667 328.5 158C327.953 158.925 327.287 159.758 326.5 160.5C322.222 157.547 318.222 154.38 314.5 151C318.553 145.718 322.22 140.218 325.5 134.5Z" fill="#EDF3F8"/>
<path fill-rule="evenodd" clip-rule="evenodd" d="M234.5 144.5C287.808 141.057 325.642 163.39 348 211.5C362.613 258.066 352.113 297.899 316.5 331C281.99 357.143 244.657 361.81 204.5 345C158.317 319.801 138.817 280.968 146 228.5C158.532 182.464 188.032 154.464 234.5 144.5Z" fill="#FEFEFE"/>
<path fill-rule="evenodd" clip-rule="evenodd" d="M280.5 233.5C277.456 233.772 275.123 235.105 273.5 237.5C272.566 236.432 272.232 235.099 272.5 233.5C266.815 232.496 261.148 231.329 255.5 230C255.043 229.586 254.709 229.086 254.5 228.5C255.737 227.719 256.737 226.719 257.5 225.5C255.725 222.262 253.725 219.262 251.5 216.5C251.267 214.938 250.6 213.605 249.5 212.5C244.76 205.362 240.26 198.028 236 190.5C234.239 188.637 232.405 187.97 230.5 188.5C231.058 187.21 232.058 186.377 233.5 186C244.24 185.072 254.907 185.405 265.5 187C271.124 195.08 276.624 203.247 282 211.5C283.471 209.128 284.637 209.128 285.5 211.5C284.046 218.899 282.379 226.232 280.5 233.5Z" fill="#65E43F"/>
<path fill-rule="evenodd" clip-rule="evenodd" d="M230.5 188.5C232.405 187.97 234.239 188.637 236 190.5C240.26 198.028 244.76 205.362 249.5 212.5C248.026 213.436 247.026 214.77 246.5 216.5C244.621 217.341 242.621 217.675 240.5 217.5C232.921 217.959 226.254 220.625 220.5 225.5C217.109 224.471 214.443 222.471 212.5 219.5C218.274 208.94 224.274 198.607 230.5 188.5Z" fill="#10C678"/>
<path fill-rule="evenodd" clip-rule="evenodd" d="M249.5 212.5C250.6 213.605 251.267 214.938 251.5 216.5C249.833 216.5 248.167 216.5 246.5 216.5C247.026 214.77 248.026 213.436 249.5 212.5Z" fill="#F2FCF3"/>
<path fill-rule="evenodd" clip-rule="evenodd" d="M246.5 216.5C248.167 216.5 249.833 216.5 251.5 216.5C253.725 219.262 255.725 222.262 257.5 225.5C256.737 226.719 255.737 227.719 254.5 228.5C254.709 229.086 255.043 229.586 255.5 230C261.148 231.329 266.815 232.496 272.5 233.5C272.232 235.099 272.566 236.432 273.5 237.5C273.634 239.292 273.301 240.958 272.5 242.5C267.468 241.659 262.468 240.659 257.5 239.5C256.36 235.339 254.36 234.673 251.5 237.5C250.957 237.44 250.624 237.107 250.5 236.5C253.106 234.421 253.106 232.421 250.5 230.5C246.849 226.842 243.516 222.842 240.5 218.5C240.5 218.167 240.5 217.833 240.5 217.5C242.621 217.675 244.621 217.341 246.5 216.5Z" fill="#1F97DA"/>
<path fill-rule="evenodd" clip-rule="evenodd" d="M240.5 217.5C240.5 217.833 240.5 218.167 240.5 218.5C234.143 220.179 228.476 223.179 223.5 227.5C222.29 227.068 221.29 226.401 220.5 225.5C226.254 220.625 232.921 217.959 240.5 217.5Z" fill="#16A781"/>
<path fill-rule="evenodd" clip-rule="evenodd" d="M240.5 218.5C243.516 222.842 246.849 226.842 250.5 230.5C248.285 233.005 247.119 236.005 247 239.5C243.034 242.464 239.367 245.797 236 249.5C235.374 251.713 235.541 253.88 236.5 256C235.956 258.4 235.289 260.733 234.5 263C232.613 263.163 231.113 262.329 230 260.5C228.847 257.289 228.18 253.956 228 250.5C226.989 249.663 225.822 249.33 224.5 249.5C222.905 244.389 220.905 239.389 218.5 234.5C220.4 232.381 222.066 230.047 223.5 227.5C228.476 223.179 234.143 220.179 240.5 218.5Z" fill="#9FE53D"/>
<path fill-rule="evenodd" clip-rule="evenodd" d="M250.5 230.5C253.106 232.421 253.106 234.421 250.5 236.5C250.624 237.107 250.957 237.44 251.5 237.5C250.149 239.423 249.482 241.59 249.5 244C250.073 248.158 250.573 252.324 251 256.5C251.414 256.957 251.914 257.291 252.5 257.5C254.483 256.018 256.316 254.351 258 252.5C258.706 248.113 258.54 243.78 257.5 239.5C262.468 240.659 267.468 241.659 272.5 242.5C270.132 243.872 268.465 245.872 267.5 248.5C268.57 253.71 270.237 258.71 272.5 263.5C272.084 265.715 270.75 267.049 268.5 267.5C267.448 267.351 266.448 267.517 265.5 268C259.63 273.702 253.964 279.535 248.5 285.5C246.345 285.628 244.345 285.128 242.5 284C237.281 278.902 231.281 275.402 224.5 273.5C223.986 271.634 223.32 269.8 222.5 268C223.477 266.503 224.477 265.003 225.5 263.5C224.813 261.823 224.146 260.156 223.5 258.5C225.124 260.137 226.124 259.803 226.5 257.5C225.622 254.87 224.955 252.203 224.5 249.5C225.822 249.33 226.989 249.663 228 250.5C228.18 253.956 228.847 257.289 230 260.5C231.113 262.329 232.613 263.163 234.5 263C235.289 260.733 235.956 258.4 236.5 256C235.541 253.88 235.374 251.713 236 249.5C239.367 245.797 243.034 242.464 247 239.5C247.119 236.005 248.285 233.005 250.5 230.5Z" fill="#34BCEA"/>
<path fill-rule="evenodd" clip-rule="evenodd" d="M218.5 234.5C220.905 239.389 222.905 244.389 224.5 249.5C224.955 252.203 225.622 254.87 226.5 257.5C226.124 259.803 225.124 260.137 223.5 258.5C222.504 258.414 221.671 258.748 221 259.5C219.546 262.071 218.38 264.738 217.5 267.5C216.599 268.29 215.932 269.29 215.5 270.5C213.992 272.181 212.992 274.181 212.5 276.5C208.854 281.781 205.687 287.448 203 293.5C202.775 295.791 202.608 297.791 202.5 299.5C200.83 299.249 199.33 298.582 198 297.5C194 290.833 190 284.167 186 277.5C184.682 274.594 184.348 271.594 185 268.5C188.77 260.46 192.937 252.627 197.5 245C196.167 244 194.833 243 193.5 242C201.534 238.601 209.868 236.101 218.5 234.5Z" fill="#66E53F"/>
<path fill-rule="evenodd" clip-rule="evenodd" d="M280.5 233.5C281.216 236.598 282.216 239.598 283.5 242.5C285.001 250.996 284.334 259.329 281.5 267.5C280.11 268.899 279.11 270.566 278.5 272.5C274.833 272.5 271.167 272.5 267.5 272.5C267.366 270.708 267.699 269.042 268.5 267.5C270.75 267.049 272.084 265.715 272.5 263.5C270.237 258.71 268.57 253.71 267.5 248.5C268.465 245.872 270.132 243.872 272.5 242.5C273.301 240.958 273.634 239.292 273.5 237.5C275.123 235.105 277.456 233.772 280.5 233.5Z" fill="#A2E63D"/>
<path fill-rule="evenodd" clip-rule="evenodd" d="M312.5 267.5C312.703 269.39 312.037 270.89 310.5 272C301.506 272.5 292.506 272.666 283.5 272.5C283.5 272.167 283.5 271.833 283.5 271.5C284.5 271.5 285.5 271.5 286.5 271.5C288.239 261.633 287.572 251.966 284.5 242.5C287.973 240.097 291.64 238.263 295.5 237C302.078 246.656 307.745 256.823 312.5 267.5Z" fill="#10C677"/>
<path fill-rule="evenodd" clip-rule="evenodd" d="M257.5 239.5C258.54 243.78 258.706 248.113 258 252.5C256.316 254.351 254.483 256.018 252.5 257.5C251.914 257.291 251.414 256.957 251 256.5C250.573 252.324 250.073 248.158 249.5 244C249.482 241.59 250.149 239.423 251.5 237.5C254.36 234.673 256.36 235.339 257.5 239.5Z" fill="#9AE345"/>
<path fill-rule="evenodd" clip-rule="evenodd" d="M283.5 242.5C283.833 242.5 284.167 242.5 284.5 242.5C287.572 251.966 288.239 261.633 286.5 271.5C285.5 271.5 284.5 271.5 283.5 271.5C282.833 270.167 282.167 268.833 281.5 267.5C284.334 259.329 285.001 250.996 283.5 242.5Z" fill="#12A580"/>
<path fill-rule="evenodd" clip-rule="evenodd" d="M122.5 252.5C130.372 252.201 133.872 255.868 133 263.5C130.459 268.069 126.625 269.569 121.5 268C115.974 262.357 116.308 257.19 122.5 252.5Z" fill="#C8A04B"/>
<path fill-rule="evenodd" clip-rule="evenodd" d="M370.5 252.5C379.207 252.037 382.707 256.037 381 264.5C376.255 269.743 371.588 269.743 367 264.5C365.593 259.643 366.76 255.643 370.5 252.5Z" fill="#CAA149"/>
<path fill-rule="evenodd" clip-rule="evenodd" d="M223.5 258.5C224.146 260.156 224.813 261.823 225.5 263.5C224.477 265.003 223.477 266.503 222.5 268C223.32 269.8 223.986 271.634 224.5 273.5C223.508 273.328 222.842 273.662 222.5 274.5C221.272 273.694 220.272 272.694 219.5 271.5C218.833 270.167 218.167 268.833 217.5 267.5C218.38 264.738 219.546 262.071 221 259.5C221.671 258.748 222.504 258.414 223.5 258.5Z" fill="#1E98D9"/>
<path fill-rule="evenodd" clip-rule="evenodd" d="M217.5 267.5C218.167 268.833 218.833 270.167 219.5 271.5C217.901 271.768 216.568 271.434 215.5 270.5C215.932 269.29 216.599 268.29 217.5 267.5Z" fill="#FAFDFC"/>
<path fill-rule="evenodd" clip-rule="evenodd" d="M268.5 267.5C267.699 269.042 267.366 270.708 267.5 272.5C271.167 272.5 274.833 272.5 278.5 272.5C280.167 272.5 281.833 272.5 283.5 272.5C292.506 272.666 301.506 272.5 310.5 272C312.037 270.89 312.703 269.39 312.5 267.5C314.938 270.224 315.105 273.224 313 276.5C308.538 283.926 303.705 291.092 298.5 298C288.246 299.426 277.912 299.926 267.5 299.5C267.785 301.288 267.452 302.955 266.5 304.5C260.48 298.812 254.48 293.145 248.5 287.5C248.5 286.833 248.5 286.167 248.5 285.5C253.964 279.535 259.63 273.702 265.5 268C266.448 267.517 267.448 267.351 268.5 267.5Z" fill="#66E43E"/>
<path fill-rule="evenodd" clip-rule="evenodd" d="M281.5 267.5C282.167 268.833 282.833 270.167 283.5 271.5C283.5 271.833 283.5 272.167 283.5 272.5C281.833 272.5 280.167 272.5 278.5 272.5C279.11 270.566 280.11 268.899 281.5 267.5Z" fill="#E3F8E5"/>
<path fill-rule="evenodd" clip-rule="evenodd" d="M215.5 270.5C216.568 271.434 217.901 271.768 219.5 271.5C220.272 272.694 221.272 273.694 222.5 274.5C227.119 280.483 233.119 284.483 240.5 286.5C240.5 288.167 240.5 289.833 240.5 291.5C228.822 290.664 219.489 285.664 212.5 276.5C212.992 274.181 213.992 272.181 215.5 270.5Z" fill="#0FA283"/>
<path fill-rule="evenodd" clip-rule="evenodd" d="M224.5 273.5C231.281 275.402 237.281 278.902 242.5 284C244.345 285.128 246.345 285.628 248.5 285.5C248.5 286.167 248.5 286.833 248.5 287.5C245.794 287.425 243.127 287.092 240.5 286.5C233.119 284.483 227.119 280.483 222.5 274.5C222.842 273.662 223.508 273.328 224.5 273.5Z" fill="#C4E0EE"/>
<path fill-rule="evenodd" clip-rule="evenodd" d="M212.5 276.5C219.489 285.664 228.822 290.664 240.5 291.5C240.98 294.685 240.314 297.519 238.5 300C226.326 300.826 214.326 300.66 202.5 299.5C202.608 297.791 202.775 295.791 203 293.5C205.687 287.448 208.854 281.781 212.5 276.5Z" fill="#1DC77A"/>
<path fill-rule="evenodd" clip-rule="evenodd" d="M139.5 297.5C140.978 297.238 142.311 297.571 143.5 298.5C144.778 300.722 145.778 303.056 146.5 305.5C145.452 309.351 143.119 310.351 139.5 308.5C138.396 310.389 137.063 312.055 135.5 313.5C135.167 313.167 134.833 312.833 134.5 312.5C135.54 310.477 136.54 308.477 137.5 306.5C136.366 301.743 134.199 301.41 131 305.5C130.5 305 130 304.5 129.5 304C133.069 302.058 136.402 299.892 139.5 297.5Z" fill="#E5EEF5"/>
<path fill-rule="evenodd" clip-rule="evenodd" d="M140.5 299.5C143.89 300.944 145.223 303.61 144.5 307.5C140.367 307.531 138.2 305.531 138 301.5C138.995 300.934 139.828 300.267 140.5 299.5Z" fill="#1C69A3"/>
<path fill-rule="evenodd" clip-rule="evenodd" d="M355.5 296.5C356.376 296.369 357.043 296.702 357.5 297.5C355.461 299.899 354.295 302.566 354 305.5C355 306.167 356 306.833 357 307.5C358.5 305.167 360 302.833 361.5 300.5C361.833 300.833 362.167 301.167 362.5 301.5C358.559 304.992 358.726 307.992 363 310.5C364.667 307.833 366.333 305.167 368 302.5C367.448 306.271 365.782 309.604 363 312.5C359.349 310.507 355.683 308.507 352 306.5C352.359 302.942 353.525 299.609 355.5 296.5Z" fill="#E8F0F6"/>
<path fill-rule="evenodd" clip-rule="evenodd" d="M148.5 309.5C151.518 311.818 153.851 314.818 155.5 318.5C155.333 318.833 155.167 319.167 155 319.5C153.257 317.679 151.757 315.679 150.5 313.5C148.438 312.239 146.772 312.739 145.5 315C147.718 317.157 148.885 319.657 149 322.5C147.333 320.167 145.667 317.833 144 315.5C142.926 316.618 141.76 317.618 140.5 318.5C141.971 321.136 143.637 323.636 145.5 326C145.167 326.167 144.833 326.333 144.5 326.5C142.008 323.837 139.674 321.004 137.5 318C141.235 315.147 144.902 312.313 148.5 309.5Z" fill="#DDE9F2"/>
<path fill-rule="evenodd" clip-rule="evenodd" d="M345.5 314.5C349.273 316.221 352.939 318.221 356.5 320.5C357.99 318.874 359.49 317.208 361 315.5C360.653 318.712 359.153 321.379 356.5 323.5C352.455 320.772 348.788 317.772 345.5 314.5Z" fill="#E0EBF3"/>
<path fill-rule="evenodd" clip-rule="evenodd" d="M156.5 320.5C162.006 323.501 163.506 327.835 161 333.5C154.911 338.08 150.078 336.913 146.5 330C149.729 326.601 153.062 323.435 156.5 320.5Z" fill="#E2ECF3"/>
<path fill-rule="evenodd" clip-rule="evenodd" d="M156.5 322.5C160.169 324.438 161.336 327.438 160 331.5C156.004 335.788 152.504 335.455 149.5 330.5C151.856 327.814 154.189 325.147 156.5 322.5Z" fill="#0F64A1"/>
<path fill-rule="evenodd" clip-rule="evenodd" d="M341.5 319.5C342.873 319.343 344.207 319.51 345.5 320C338.88 322.147 337.88 325.814 342.5 331C348.656 333.172 351.823 331.005 352 324.5C352.997 331.833 349.83 334.666 342.5 333C336.216 329.007 335.883 324.507 341.5 319.5Z" fill="#E5EEF5"/>
<path fill-rule="evenodd" clip-rule="evenodd" d="M333.5 328.5C334.649 328.791 335.316 329.624 335.5 331C335.456 335.516 337.123 339.182 340.5 342C340 342.5 339.5 343 339 343.5C335.34 339.619 330.84 337.286 325.5 336.5C328.443 336.466 331.443 336.133 334.5 335.5C333.626 333.253 333.292 330.92 333.5 328.5Z" fill="#D5E4EE"/>
<path fill-rule="evenodd" clip-rule="evenodd" d="M166.5 330.5C167.573 331.251 167.74 332.251 167 333.5C164.265 335.732 162.098 338.399 160.5 341.5C161.776 344.804 164.109 345.971 167.5 345C169.5 342.667 171.5 340.333 173.5 338C174.332 337.312 174.998 337.479 175.5 338.5C173.31 340.856 171.31 343.356 169.5 346C160.769 348.266 157.936 345.099 161 336.5C163.04 334.63 164.873 332.63 166.5 330.5Z" fill="#E0EBF3"/>
<path fill-rule="evenodd" clip-rule="evenodd" d="M175.5 342.5C179.909 341.618 183.409 342.952 186 346.5C186.749 347.635 186.583 348.635 185.5 349.5C183.226 344.204 179.726 343.204 175 346.5C172.283 352.804 174.45 355.971 181.5 356C177.275 358.151 174.109 356.984 172 352.5C171.182 348.469 172.349 345.136 175.5 342.5Z" fill="#E2EDF4"/>
<path fill-rule="evenodd" clip-rule="evenodd" d="M321.5 338.5C327.989 339.484 327.989 340.318 321.5 341C317.633 344.249 317.633 347.582 321.5 351C326.655 352.677 329.655 350.844 330.5 345.5C331.135 353.017 327.802 355.517 320.5 353C314.977 347.777 315.31 342.944 321.5 338.5Z" fill="#D8E6F0"/>
<path fill-rule="evenodd" clip-rule="evenodd" d="M189.5 348.5C193.09 349.628 196.423 351.295 199.5 353.5C196.533 353.634 193.699 352.634 191 350.5C190.044 351.579 189.211 352.745 188.5 354C190.833 355.667 193.167 357.333 195.5 359C193.063 358.797 190.729 357.963 188.5 356.5C187.155 357.347 186.155 358.513 185.5 360C196.115 367.049 195.782 367.716 184.5 362C183.978 361.439 183.645 360.772 183.5 360C185.31 356.035 187.31 352.202 189.5 348.5Z" fill="#DEEAF2"/>
<path fill-rule="evenodd" clip-rule="evenodd" d="M296.5 353.5C302.662 353.45 304.329 355.95 301.5 361C307.948 367.384 307.282 367.884 299.5 362.5C298.264 363.246 296.93 363.579 295.5 363.5C295.586 365.677 296.253 367.677 297.5 369.5C296.833 370.833 296.167 370.833 295.5 369.5C293.931 365.625 292.264 361.792 290.5 358C292.358 356.245 294.358 354.745 296.5 353.5Z" fill="#E0EBF3"/>
<path fill-rule="evenodd" clip-rule="evenodd" d="M296.5 355.5C298.948 355.01 300.615 355.843 301.5 358C300.133 360.2 298.133 361.7 295.5 362.5C294.05 361.345 293.05 359.845 292.5 358C294.066 357.392 295.4 356.558 296.5 355.5Z" fill="#226CA5"/>
<path fill-rule="evenodd" clip-rule="evenodd" d="M311.5 345.5C313.028 345.517 313.528 346.184 313 347.5C310.542 348.64 308.375 350.14 306.5 352C306.78 353.395 307.447 354.562 308.5 355.5C310.583 354.041 312.75 352.708 315 351.5C315.667 352.167 315.667 352.833 315 353.5C312.863 354.479 311.029 355.812 309.5 357.5C309.977 358.931 310.643 360.264 311.5 361.5C314.137 359.173 317.137 358.007 320.5 358C317.5 359.833 314.5 361.667 311.5 363.5C308.35 359.881 305.684 355.881 303.5 351.5C306.235 349.479 308.901 347.479 311.5 345.5Z" fill="#DFEAF2"/>
<path fill-rule="evenodd" clip-rule="evenodd" d="M211.5 358.5C215.465 358.696 218.965 360.03 222 362.5C222.667 363.833 222.667 365.167 222 366.5C220.702 367.56 219.535 368.726 218.5 370C219.409 371.789 219.576 373.623 219 375.5C217.644 373.102 216.477 370.602 215.5 368C214.056 367.219 212.723 367.386 211.5 368.5C211.023 369.931 210.357 371.264 209.5 372.5C209.167 371.667 208.833 370.833 208.5 370C209.582 366.172 210.582 362.339 211.5 358.5Z" fill="#E1ECF3"/>
<path fill-rule="evenodd" clip-rule="evenodd" d="M212.5 360.5C214.854 360.838 217.187 361.338 219.5 362C220.517 363.049 220.684 364.216 220 365.5C214.562 367.98 212.062 366.313 212.5 360.5Z" fill="#1D69A4"/>
<path fill-rule="evenodd" clip-rule="evenodd" d="M196.5 365.5C199.063 366.998 199.063 368.665 196.5 370.5C196.193 369.113 196.193 367.446 196.5 365.5Z" fill="#B4CFE1"/>
<path fill-rule="evenodd" clip-rule="evenodd" d="M225.5 362.5C229.247 362.392 232.914 362.892 236.5 364C233.518 364.498 230.518 364.665 227.5 364.5C227.5 365.833 227.5 367.167 227.5 368.5C229.854 368.838 232.187 369.338 234.5 370C231.854 370.497 229.187 370.664 226.5 370.5C226.286 372.144 226.62 373.644 227.5 375C229.878 375.511 232.212 376.178 234.5 377C230.812 377.45 227.146 377.283 223.5 376.5C224.004 371.798 224.671 367.131 225.5 362.5Z" fill="#D7E5EF"/>
<path fill-rule="evenodd" clip-rule="evenodd" d="M256.5 363.5C259.665 362.964 262.331 363.797 264.5 366C262.891 366.071 261.224 365.904 259.5 365.5C257.681 365.342 256.348 366.009 255.5 367.5C258.418 369.59 261.585 371.257 265 372.5C265.686 376.87 263.686 378.87 259 378.5C256.652 378.742 254.818 377.908 253.5 376C256.46 376.32 259.46 376.32 262.5 376C263.022 375.439 263.355 374.772 263.5 374C260.495 372.24 257.328 370.74 254 369.5C253.034 366.66 253.867 364.66 256.5 363.5Z" fill="#E3EDF4"/>
<path fill-rule="evenodd" clip-rule="evenodd" d="M270.5 361.5C279.676 361.401 279.676 362.234 270.5 364C269.62 365.356 269.286 366.856 269.5 368.5C272.469 367.671 275.469 367.505 278.5 368C276.377 369.194 274.043 369.86 271.5 370C270.594 371.699 270.261 373.533 270.5 375.5C273.203 375.045 275.87 374.378 278.5 373.5C279.167 373.833 279.833 374.167 280.5 374.5C276.571 375.815 272.571 376.815 268.5 377.5C268.092 372.463 267.426 367.463 266.5 362.5C268.099 362.768 269.432 362.434 270.5 361.5Z" fill="#D9E7F0"/>
<path fill-rule="evenodd" clip-rule="evenodd" d="M283.5 371.5C286.119 372.403 286.786 374.069 285.5 376.5C284.05 375.15 283.383 373.484 283.5 371.5Z" fill="#B3CEE1"/>
<path fill-rule="evenodd" clip-rule="evenodd" d="M238.5 363.5C240.268 367.044 241.102 371.044 241 375.5C243.333 378.167 245.667 378.167 248 375.5C248.175 371.789 248.675 368.122 249.5 364.5C250.997 369.191 250.664 373.691 248.5 378C245.007 379.004 241.841 378.504 239 376.5C238.501 372.179 238.334 367.846 238.5 363.5Z" fill="#EAF1F7"/>
</g>
<defs>
<clipPath id="clip0_291_132">
<rect width="500" height="500" fill="white"/>
</clipPath>
</defs>
</svg>
